<svg width="110" height="29" viewBox="0 0 110 29" fill="none" xmlns="http://www.w3.org/2000/svg">
<g clip-path="url(#clip0_128_2)">
<mask id="mask0_128_2" style="mask-type:luminance" maskUnits="userSpaceOnUse" x="0" y="0" width="29" height="29">
<path d="M28.1783 14.0892C28.1783 6.30793 21.8704 0 14.0892 0C6.30793 0 0 6.30793 0 14.0892C0 21.8704 6.30793 28.1783 14.0892 28.1783C21.8704 28.1783 28.1783 21.8704 28.1783 14.0892Z" fill="white"/>
</mask>
<g mask="url(#mask0_128_2)">
<path d="M28.1783 14.0892C28.1783 6.30793 21.8704 0 14.0892 0C6.30793 0 0 6.30793 0 14.0892C0 21.8704 6.30793 28.1783 14.0892 28.1783C21.8704 28.1783 28.1783 21.8704 28.1783 14.0892Z" fill="#008982"/>
<path d="M28.1802 -6.65381H-4.69446V14.0886H28.1802V-6.65381Z" fill="#26A49D"/>
<path d="M14.0888 21.9161C18.4117 21.9161 21.9161 18.4117 21.9161 14.0888C21.9161 9.76589 18.4117 6.26148 14.0888 6.26148C9.76589 6.26148 6.26148 9.76589 6.26148 14.0888C6.26148 18.4117 9.76589 21.9161 14.0888 21.9161Z" fill="#FFCC19"/>
<path d="M21.9161 14.0888C21.9161 12.0129 21.0914 10.022 19.6235 8.55408C18.1556 7.08617 16.1647 6.26151 14.0888 6.26151C12.0129 6.26151 10.022 7.08617 8.55404 8.55408C7.08614 10.022 6.26147 12.0129 6.26147 14.0888H14.0888H21.9161Z" fill="#FAFFFA"/>
</g>
<path d="M39.2886 2.12255C40.2776 2.12255 41.1 2.43538 41.7559 3.06102C42.4118 3.68667 42.7398 4.46873 42.7398 5.40719C42.7398 6.35575 42.4118 7.13781 41.7559 7.75337C41.1 8.35883 40.2776 8.66156 39.2886 8.66156H35.9737V12.2641H34.5055V2.12255H39.2886ZM35.9737 7.25386H39.2432C39.8386 7.25386 40.323 7.08231 40.6963 6.73921C41.0697 6.39612 41.2564 5.95211 41.2564 5.40719C41.2564 4.87237 41.0647 4.43341 40.6812 4.09031C40.3078 3.73712 39.8285 3.56053 39.2432 3.56053H35.9737V7.25386ZM44.6606 12.2489V2.12255H48.7323C50.1854 2.12255 51.3863 2.60188 52.3348 3.56053C53.2834 4.50909 53.7577 5.70993 53.7577 7.16304V7.20845C53.7577 8.66156 53.2834 9.86744 52.3348 10.8261C51.3863 11.7747 50.1854 12.2489 48.7323 12.2489H44.6606ZM48.7172 3.56053H46.1288V10.811H48.7172C49.7566 10.811 50.6093 10.478 51.2753 9.81194C51.9413 9.13584 52.2743 8.26801 52.2743 7.20845V7.16304C52.2743 6.10348 51.9413 5.24069 51.2753 4.57468C50.6093 3.89858 49.7566 3.56053 48.7172 3.56053ZM60.604 2.12255C61.593 2.12255 62.4154 2.43538 63.0713 3.06102C63.7272 3.68667 64.0552 4.46873 64.0552 5.40719C64.0552 6.35575 63.7272 7.13781 63.0713 7.75337C62.4154 8.35883 61.593 8.66156 60.604 8.66156H57.2891V12.2641H55.8209V2.12255H60.604ZM57.2891 7.25386H60.5586C61.154 7.25386 61.6384 7.08231 62.0117 6.73921C62.3851 6.39612 62.5718 5.95211 62.5718 5.40719C62.5718 4.87237 62.3801 4.43341 61.9966 4.09031C61.6232 3.73712 61.1439 3.56053 60.5586 3.56053H57.2891V7.25386Z" fill="#202D4C"/>
<path d="M33.9827 20.7966V14.7296H36.2479V20.7649C36.2479 21.5464 36.4644 22.1905 36.8974 22.6974C37.341 23.1938 37.9376 23.4419 38.6874 23.4419C39.4478 23.4419 40.0444 23.1938 40.4774 22.6974C40.9209 22.1905 41.1427 21.5464 41.1427 20.7649V14.7296H43.3921V20.7966C43.3921 22.2645 42.9644 23.4367 42.109 24.3132C41.2641 25.1897 40.1236 25.628 38.6874 25.628C37.2617 25.628 36.1212 25.1897 35.2658 24.3132C34.4104 23.4367 33.9827 22.2645 33.9827 20.7966ZM49.4349 17.2324C50.4064 17.2324 51.1721 17.544 51.7318 18.167C52.2915 18.7901 52.5713 19.6613 52.5713 20.7807V25.3428H50.4328V21.0975C50.4328 20.5484 50.2797 20.1154 49.9735 19.7986C49.6672 19.4818 49.2818 19.3234 48.8171 19.3234C48.3208 19.3234 47.8984 19.5029 47.5499 19.862C47.2014 20.2105 47.0271 20.6751 47.0271 21.2559V25.3428H44.8886V17.4542H46.9638V18.4046H47.043C47.6027 17.6232 48.4 17.2324 49.4349 17.2324ZM54.0774 13.9376H56.2159V16.4404H54.0774V13.9376ZM54.0774 17.4542H56.2159V25.3428H54.0774V17.4542ZM61.5299 22.7766L63.6843 17.4542H65.8703L62.4962 25.3428H60.3577L56.9837 17.4542H59.2806L61.5299 22.7766ZM69.9574 17.2166C71.2669 17.2166 72.3018 17.6812 73.0622 18.6106C73.8225 19.5399 74.1288 20.7068 73.9809 22.1113H68.0248C68.0882 22.5337 68.2889 22.8928 68.6268 23.1885C68.9753 23.4736 69.4135 23.6268 69.9416 23.6479C70.3112 23.669 70.6544 23.6056 70.9712 23.4578C71.2986 23.2994 71.5309 23.0935 71.6682 22.84H73.9017C73.6483 23.706 73.1625 24.3818 72.4444 24.8676C71.7263 25.3428 70.892 25.5804 69.9416 25.5804C68.6637 25.5804 67.6605 25.1791 66.9318 24.3765C66.2032 23.5634 65.8388 22.5707 65.8388 21.3985C65.8388 20.2157 66.2243 19.2231 66.9952 18.4205C67.7767 17.6179 68.7641 17.2166 69.9574 17.2166ZM71.1296 19.4818C70.8022 19.2495 70.4062 19.1333 69.9416 19.1333C69.4769 19.1333 69.0703 19.2547 68.7218 19.4976C68.3839 19.73 68.1568 20.0468 68.0407 20.4481H71.8108C71.6946 20.0362 71.4675 19.7141 71.1296 19.4818ZM79.1234 17.4542H80.7867V19.5927H79.0125C78.4951 19.5927 78.0727 19.7616 77.7453 20.0996C77.4179 20.4375 77.2542 20.8758 77.2542 21.4143V25.3428H75.1157V17.4542H77.1433V18.6898H77.2225C77.5288 17.866 78.1624 17.4542 79.1234 17.4542ZM83.9827 17.4542H88.323V19.5135H84.046C83.8242 19.5135 83.7134 19.6244 83.7134 19.8461C83.7134 20.0362 83.8031 20.1471 83.9827 20.1788L86.9449 20.7807C87.5468 20.9074 88.022 21.1662 88.3705 21.5569C88.719 21.9476 88.8932 22.4176 88.8932 22.9667C88.8932 23.6532 88.6451 24.2234 88.1487 24.6775C87.663 25.1211 87.0557 25.3428 86.3271 25.3428H81.765V23.2677H86.2954C86.5277 23.2677 86.6439 23.1515 86.6439 22.9192C86.6439 22.7397 86.5541 22.6235 86.3746 22.5707L83.3649 21.9212C82.7946 21.8051 82.33 21.5516 81.9709 21.1609C81.6118 20.7702 81.4323 20.3108 81.4323 19.7828C81.4323 19.1069 81.6752 18.5525 82.161 18.1195C82.6468 17.676 83.254 17.4542 83.9827 17.4542ZM90.0127 13.9376H92.1512V16.4404H90.0127V13.9376ZM90.0127 17.4542H92.1512V25.3428H90.0127V17.4542ZM99.7109 17.4542V19.5135H96.4636V22.6658C96.4636 22.8558 96.5217 23.0037 96.6378 23.1093C96.754 23.2149 96.9071 23.2677 97.0972 23.2677H99.7109V25.3428H96.7012C95.9725 25.3428 95.3917 25.1369 94.9587 24.725C94.5363 24.3026 94.3251 23.7376 94.3251 23.0301V19.5135H93.2162V17.4542H94.3251V14.7296H96.4636V17.4542H99.7109ZM104.941 23.4419L106.874 17.4542H109.044L105.908 26.6259C105.696 27.2279 105.374 27.6925 104.941 28.0199C104.508 28.3473 103.986 28.5109 103.373 28.5109H101.124V26.42H103.31C103.521 26.42 103.701 26.3725 103.848 26.2774L100.221 17.4542H102.565L104.941 23.4419Z" fill="#008982"/>
</g>
<defs>
<clipPath id="clip0_128_2">
<rect width="110" height="29" fill="white"/>
</clipPath>
</defs>
</svg>
